<svg width="351" height="332" viewBox="0 0 351 332" fill="none" xmlns="http://www.w3.org/2000/svg">
<path d="M336.941 185.147L226.074 -42.9264C223.828 -47.547 219.071 -50.4113 213.936 -50.2353L42.7104 -44.365C35.5349 -44.119 29.9174 -38.1027 30.1634 -30.9272L41.034 286.147C41.28 293.322 47.2963 298.94 54.4718 298.694L178.666 294.436C180.922 294.358 183.119 293.695 185.041 292.511L332.07 201.897C337.755 198.394 339.861 191.153 336.941 185.147Z" fill="#BFFF6C"/>
<path d="M325.502 250.091L231.764 14.4589C229.865 9.68519 225.333 6.47767 220.199 6.27437L49.0069 -0.505058C41.8328 -0.78916 35.7868 4.79629 35.5027 11.9704L22.9486 328.982C22.6645 336.156 28.25 342.202 35.424 342.486L159.594 347.404C161.85 347.493 164.09 346.993 166.094 345.954L319.408 266.436C325.336 263.362 327.97 256.296 325.502 250.091Z" fill="#BFFF6C"/>
</svg>
