<svg width="30" height="30" viewBox="0 0 30 30" fill="none" xmlns="http://www.w3.org/2000/svg">
<path d="M26.9997 21.6666V9.66659H8.33301V21.6666H26.9997ZM26.9997 2.99992C27.7069 2.99992 28.3852 3.28087 28.8853 3.78097C29.3854 4.28106 29.6663 4.95934 29.6663 5.66659V21.6666C29.6663 22.3738 29.3854 23.0521 28.8853 23.5522C28.3852 24.0523 27.7069 24.3333 26.9997 24.3333H8.33301C7.62576 24.3333 6.94749 24.0523 6.44739 23.5522C5.94729 23.0521 5.66634 22.3738 5.66634 21.6666V5.66659C5.66634 4.95934 5.94729 4.28106 6.44739 3.78097C6.94749 3.28087 7.62576 2.99992 8.33301 2.99992H9.66634V0.333252H12.333V2.99992H22.9997V0.333252H25.6663V2.99992H26.9997ZM2.99967 26.9999H21.6663V29.6666H2.99967C2.29243 29.6666 1.61415 29.3856 1.11406 28.8855C0.613959 28.3854 0.333008 27.7072 0.333008 26.9999V10.9999H2.99967V26.9999ZM24.333 18.9999H18.9997V13.6666H24.333V18.9999Z" fill="white"/>
</svg>
