<svg width="14" height="13" viewBox="0 0 14 13" fill="none" xmlns="http://www.w3.org/2000/svg">
<path d="M12.333 2.83331H10.609L8.80434 1.02865C8.67935 0.903613 8.5098 0.833351 8.33301 0.833313H5.66634C5.48954 0.833351 5.32 0.903613 5.19501 1.02865L3.39034 2.83331H1.66634C0.931008 2.83331 0.333008 3.43131 0.333008 4.16665V11.5C0.333008 12.2353 0.931008 12.8333 1.66634 12.8333H12.333C13.0683 12.8333 13.6663 12.2353 13.6663 11.5V4.16665C13.6663 3.43131 13.0683 2.83331 12.333 2.83331ZM1.66634 11.5V4.16665H3.66634C3.84367 4.16665 4.01301 4.09665 4.13767 3.97131L5.94234 2.16665H8.05701L9.86167 3.97131C9.98667 4.09635 10.1562 4.16661 10.333 4.16665H12.333L12.3343 11.5H1.66634Z" fill="white"/>
</svg>
