<svg width="32" height="32" viewBox="0 0 32 32" fill="none" xmlns="http://www.w3.org/2000/svg">
<path d="M28.6665 5.33337H25.7776V7.11115H28.4442V26.6667H3.55535V7.11115H6.22202V5.33337H3.33313C3.12534 5.33685 2.92027 5.38122 2.72963 5.46396C2.53899 5.5467 2.36652 5.66618 2.22207 5.81559C2.07762 5.96499 1.96401 6.14139 1.88775 6.33471C1.81148 6.52803 1.77404 6.73447 1.77757 6.94226V26.8356C1.77404 27.0434 1.81148 27.2498 1.88775 27.4432C1.96401 27.6365 2.07762 27.8129 2.22207 27.9623C2.36652 28.1117 2.53899 28.2312 2.72963 28.3139C2.92027 28.3966 3.12534 28.441 3.33313 28.4445H28.6665C28.8743 28.441 29.0793 28.3966 29.27 28.3139C29.4606 28.2312 29.6331 28.1117 29.7775 27.9623C29.922 27.8129 30.0356 27.6365 30.1118 27.4432C30.1881 27.2498 30.2255 27.0434 30.222 26.8356V6.94226C30.2255 6.73447 30.1881 6.52803 30.1118 6.33471C30.0356 6.14139 29.922 5.96499 29.7775 5.81559C29.6331 5.66618 29.4606 5.5467 29.27 5.46396C29.0793 5.38122 28.8743 5.33685 28.6665 5.33337Z" fill="#252525"/>
<path d="M7.11133 12.4445H8.88911V14.2222H7.11133V12.4445Z" fill="#252525"/>
<path d="M12.4443 12.4445H14.2221V14.2222H12.4443V12.4445Z" fill="#252525"/>
<path d="M17.7773 12.4445H19.5551V14.2222H17.7773V12.4445Z" fill="#252525"/>
<path d="M23.1113 12.4445H24.8891V14.2222H23.1113V12.4445Z" fill="#252525"/>
<path d="M7.11133 16.8889H8.88911V18.6667H7.11133V16.8889Z" fill="#252525"/>
<path d="M12.4443 16.8889H14.2221V18.6667H12.4443V16.8889Z" fill="#252525"/>
<path d="M17.7773 16.8889H19.5551V18.6667H17.7773V16.8889Z" fill="#252525"/>
<path d="M23.1113 16.8889H24.8891V18.6667H23.1113V16.8889Z" fill="#252525"/>
<path d="M7.11133 21.3334H8.88911V23.1112H7.11133V21.3334Z" fill="#252525"/>
<path d="M12.4443 21.3334H14.2221V23.1112H12.4443V21.3334Z" fill="#252525"/>
<path d="M17.7773 21.3334H19.5551V23.1112H17.7773V21.3334Z" fill="#252525"/>
<path d="M23.1113 21.3334H24.8891V23.1112H23.1113V21.3334Z" fill="#252525"/>
<path d="M8.88889 8.88894C9.12464 8.88894 9.35073 8.79529 9.51743 8.62859C9.68413 8.46189 9.77778 8.2358 9.77778 8.00005V2.66672C9.77778 2.43097 9.68413 2.20488 9.51743 2.03818C9.35073 1.87148 9.12464 1.77783 8.88889 1.77783C8.65314 1.77783 8.42705 1.87148 8.26035 2.03818C8.09365 2.20488 8 2.43097 8 2.66672V8.00005C8 8.2358 8.09365 8.46189 8.26035 8.62859C8.42705 8.79529 8.65314 8.88894 8.88889 8.88894Z" fill="#252525"/>
<path d="M23.1115 8.88894C23.3473 8.88894 23.5734 8.79529 23.7401 8.62859C23.9068 8.46189 24.0004 8.2358 24.0004 8.00005V2.66672C24.0004 2.43097 23.9068 2.20488 23.7401 2.03818C23.5734 1.87148 23.3473 1.77783 23.1115 1.77783C22.8758 1.77783 22.6497 1.87148 22.483 2.03818C22.3163 2.20488 22.2227 2.43097 22.2227 2.66672V8.00005C22.2227 8.2358 22.3163 8.46189 22.483 8.62859C22.6497 8.79529 22.8758 8.88894 23.1115 8.88894Z" fill="#252525"/>
<path d="M11.5557 5.33337H20.4446V7.11115H11.5557V5.33337Z" fill="#252525"/>
</svg>
