<svg width="46" height="70" viewBox="0 0 46 70" fill="none" xmlns="http://www.w3.org/2000/svg">
<path d="M1.33889 48.8271C0.191729 47.68 0.19172 45.82 1.33889 44.6729C2.48606 43.5257 4.34603 43.5257 5.49319 44.6729L20.0625 59.2422L20.0625 3.66699C20.0625 2.04474 21.3778 0.729624 23 0.729492C24.6224 0.729492 25.9375 2.04466 25.9375 3.66699L25.9375 59.2402L40.5059 44.6729C41.6531 43.5259 43.5131 43.5258 44.6602 44.6729C45.8071 45.8199 45.807 47.68 44.6602 48.8271L25.0869 68.3994C25.0767 68.4097 25.066 68.4195 25.0557 68.4297C25.0001 68.4842 24.9435 68.5367 24.8848 68.5859C24.877 68.5925 24.8692 68.599 24.8614 68.6055C24.8396 68.6234 24.8161 68.6391 24.794 68.6562C24.7381 68.6994 24.682 68.7421 24.6231 68.7812C24.5979 68.798 24.5714 68.8123 24.5459 68.8281C24.4913 68.862 24.4369 68.8964 24.3799 68.9268C24.3471 68.9443 24.3127 68.9584 24.2793 68.9746C24.2258 69.0006 24.1725 69.0271 24.1172 69.0498C24.087 69.0622 24.056 69.0726 24.0254 69.084C23.9661 69.1061 23.9067 69.1282 23.8457 69.1465C23.8135 69.1561 23.7805 69.1624 23.7481 69.1709C23.6896 69.1863 23.6312 69.203 23.5713 69.2148C23.5677 69.2155 23.5641 69.2161 23.5606 69.2168L23.3008 69.2559C23.202 69.2659 23.1015 69.2705 23 69.2705C22.9132 69.2705 22.8272 69.2672 22.7422 69.2598C22.7308 69.2588 22.7194 69.258 22.708 69.2568C22.6752 69.2536 22.6429 69.2465 22.6104 69.2422C22.5484 69.2339 22.4863 69.2261 22.4248 69.2139C22.3763 69.2042 22.3289 69.1907 22.2813 69.1787C22.2364 69.1674 22.1909 69.158 22.1465 69.1445C22.1028 69.1313 22.0604 69.1148 22.0176 69.0996C21.969 69.0824 21.9199 69.0667 21.8721 69.0469C21.8368 69.0322 21.8031 69.0141 21.7686 68.998C21.7149 68.9733 21.6608 68.9491 21.6084 68.9209C21.5818 68.9066 21.5564 68.8901 21.5303 68.875C21.4749 68.8429 21.4189 68.8114 21.3653 68.7754C21.339 68.7578 21.3148 68.7372 21.2891 68.7188C21.1611 68.6267 21.037 68.5253 20.9219 68.4102L1.33889 48.8271Z" fill="#161616"/>
</svg>
