<svg width="22" height="30" viewBox="0 0 22 30" fill="none" xmlns="http://www.w3.org/2000/svg">
<path d="M15.0004 28.3333L14.2604 29.4426C14.4612 29.5766 14.6946 29.6535 14.9357 29.6652C15.1768 29.677 15.4165 29.623 15.6294 29.5091C15.8422 29.3952 16.0202 29.2257 16.1442 29.0186C16.2682 28.8115 16.3337 28.5747 16.3337 28.3333H15.0004ZM11.0004 25.6666L11.7404 24.5573C11.5213 24.4111 11.2638 24.3331 11.0004 24.3331C10.737 24.3331 10.4795 24.4111 10.2604 24.5573L11.0004 25.6666ZM7.00037 28.3333H5.66703C5.667 28.5747 5.73249 28.8115 5.85653 29.0186C5.98057 29.2257 6.15851 29.3952 6.37135 29.5091C6.58419 29.623 6.82395 29.677 7.06505 29.6652C7.30616 29.6535 7.53957 29.5766 7.74037 29.4426L7.00037 28.3333ZM15.7404 27.2239L11.7404 24.5573L10.2604 26.7759L14.2604 29.4426L15.7404 27.2239ZM10.2604 24.5573L6.26037 27.2239L7.74037 29.4426L11.7404 26.7759L10.2604 24.5573ZM12.0164 3.58395L12.0724 3.65062L14.103 1.92262L14.047 1.85595L12.0164 3.58395ZM15.439 5.04528L15.5257 5.03861L15.3124 2.37995L15.2257 2.38662L15.439 5.04528ZM16.9617 6.47462L16.955 6.56128L19.6137 6.77461L19.6204 6.68795L16.9617 6.47462ZM18.3497 9.92795L18.4164 9.98395L20.1444 7.95328L20.0777 7.89728L18.3497 9.92795ZM18.4164 12.0159L18.3497 12.0719L20.0777 14.1026L20.1444 14.0466L18.4164 12.0159ZM16.955 15.4386L16.9617 15.5253L19.6204 15.3119L19.6137 15.2253L16.955 15.4386ZM15.5257 16.9613L15.439 16.9546L15.2257 19.6133L15.3124 19.6199L15.5257 16.9613ZM12.0724 18.3493L12.0164 18.4159L14.047 20.1439L14.103 20.0773L12.0724 18.3493ZM9.98437 18.4159L9.92837 18.3493L7.8977 20.0773L7.9537 20.1439L9.98437 18.4159ZM6.5617 16.9546L6.47503 16.9613L6.68837 19.6199L6.77503 19.6133L6.5617 16.9546ZM5.03903 15.5253L5.0457 15.4386L2.38703 15.2253L2.38037 15.3119L5.03903 15.5253ZM3.65103 12.0719L3.58437 12.0159L1.85637 14.0466L1.92303 14.1026L3.65103 12.0719ZM3.58437 9.98395L3.65103 9.92795L1.92303 7.89728L1.85637 7.95328L3.58437 9.98395ZM5.0457 6.56128L5.03903 6.47462L2.38037 6.68795L2.38703 6.77461L5.0457 6.56128ZM6.47503 5.03861L6.56037 5.04528L6.77503 2.38662L6.68837 2.37995L6.47503 5.03861ZM9.92837 3.65062L9.98437 3.58395L7.9537 1.85595L7.8977 1.92262L9.92837 3.65062ZM6.56037 5.04528C7.19188 5.09605 7.82776 4.99608 8.41308 4.7536C8.9984 4.51113 9.51775 4.13309 9.92837 3.65062L7.8977 1.92262C7.76069 2.08334 7.58746 2.20923 7.39228 2.2899C7.19709 2.37057 6.98554 2.40372 6.77503 2.38662L6.56037 5.04528ZM5.03903 6.47462C5.02354 6.2821 5.05005 6.08852 5.11674 5.90727C5.18343 5.72601 5.28869 5.56141 5.42526 5.42484C5.56183 5.28828 5.72643 5.18301 5.90769 5.11632C6.08894 5.04963 6.28252 5.02312 6.47503 5.03861L6.68837 2.37995C6.11094 2.33367 5.53035 2.41336 4.98675 2.61351C4.44314 2.81367 3.9495 3.1295 3.53995 3.53917C3.1304 3.94885 2.81472 4.44259 2.61474 4.98626C2.41476 5.52992 2.33391 6.11054 2.38037 6.68795L5.03903 6.47462ZM3.65103 9.92795C4.13351 9.51733 4.51155 8.99798 4.75402 8.41266C4.99649 7.82734 5.09646 7.1928 5.0457 6.56128L2.38703 6.77461C2.40413 6.98512 2.37098 7.19668 2.29031 7.39186C2.20964 7.58705 2.08376 7.76027 1.92303 7.89728L3.65103 9.92795ZM3.58437 12.0159C3.43708 11.8908 3.31877 11.7351 3.23763 11.5596C3.15649 11.3842 3.11447 11.1932 3.11447 10.9999C3.11447 10.8067 3.15649 10.6157 3.23763 10.4402C3.31877 10.2648 3.43708 10.1091 3.58437 9.98395L1.85637 7.95328C1.41497 8.32879 1.06043 8.79573 0.817299 9.32178C0.574166 9.84783 0.448242 10.4204 0.448242 10.9999C0.448242 11.5795 0.574166 12.1521 0.817299 12.6781C1.06043 13.2042 1.41497 13.6711 1.85637 14.0466L3.58437 12.0159ZM5.0457 15.4386C5.09646 14.8071 4.99649 14.1726 4.75402 13.5872C4.51155 13.0019 4.13351 12.4826 3.65103 12.0719L1.92303 14.1026C2.08376 14.2396 2.20964 14.4129 2.29031 14.608C2.37098 14.8032 2.40413 15.0148 2.38703 15.2253L5.0457 15.4386ZM6.47503 16.9613C6.28252 16.9768 6.08894 16.9503 5.90769 16.8836C5.72643 16.8169 5.56183 16.7116 5.42526 16.5751C5.28869 16.4385 5.18343 16.2739 5.11674 16.0926C5.05005 15.9114 5.02354 15.7178 5.03903 15.5253L2.38037 15.3119C2.33409 15.8894 2.41378 16.47 2.61393 17.0136C2.81408 17.5572 3.12992 18.0508 3.53959 18.4604C3.94927 18.8699 4.44301 19.1856 4.98667 19.3856C5.53034 19.5856 6.11095 19.6651 6.68837 19.6186L6.47503 16.9613ZM12.0164 18.4146C11.8912 18.5619 11.7355 18.6802 11.5601 18.7613C11.3846 18.8425 11.1937 18.8845 11.0004 18.8845C10.8071 18.8845 10.6161 18.8425 10.4407 18.7613C10.2652 18.6802 10.1095 18.5619 9.98437 18.4146L7.9537 20.1439C8.32921 20.5853 8.79615 20.9399 9.3222 21.183C9.84825 21.4261 10.4208 21.5521 11.0004 21.5521C11.5799 21.5521 12.1525 21.4261 12.6785 21.183C13.2046 20.9399 13.6715 20.5853 14.047 20.1439L12.0164 18.4146ZM16.9617 15.5253C16.9772 15.7179 16.952 15.9116 16.8852 16.093C16.8185 16.2743 16.7131 16.439 16.5764 16.5756C16.4397 16.7122 16.2749 16.8174 16.0935 16.884C15.912 16.9506 15.7183 16.977 15.5257 16.9613L15.3124 19.6199C15.8898 19.6662 16.4704 19.5865 17.014 19.3864C17.5576 19.1862 18.0512 18.8704 18.4608 18.4607C18.8703 18.051 19.186 17.5573 19.386 17.0136C19.586 16.47 19.6668 15.8894 19.6204 15.3119L16.9617 15.5253ZM18.3497 12.0719C17.8672 12.4826 17.4892 13.0019 17.2467 13.5872C17.0042 14.1726 16.9043 14.8071 16.955 15.4386L19.6137 15.2253C19.5966 15.0148 19.6297 14.8032 19.7104 14.608C19.7911 14.4129 19.917 14.2396 20.0777 14.1026L18.3497 12.0719ZM18.4164 9.98395C18.5637 10.1091 18.682 10.2648 18.7631 10.4402C18.8442 10.6157 18.8863 10.8067 18.8863 10.9999C18.8863 11.1932 18.8442 11.3842 18.7631 11.5596C18.682 11.7351 18.5637 11.8908 18.4164 12.0159L20.1444 14.0466C20.5858 13.6711 20.9403 13.2042 21.1834 12.6781C21.4266 12.1521 21.5525 11.5795 21.5525 10.9999C21.5525 10.4204 21.4266 9.84783 21.1834 9.32178C20.9403 8.79573 20.5858 8.32879 20.1444 7.95328L18.4164 9.98395ZM16.955 6.56128C16.9043 7.1928 17.0042 7.82734 17.2467 8.41266C17.4892 8.99798 17.8672 9.51733 18.3497 9.92795L20.0777 7.89728C19.917 7.76027 19.7911 7.58705 19.7104 7.39186C19.6297 7.19668 19.5966 6.98512 19.6137 6.77461L16.955 6.56128ZM15.5257 5.03861C15.7182 5.02312 15.9118 5.04963 16.093 5.11632C16.2743 5.18301 16.4389 5.28828 16.5755 5.42484C16.712 5.56141 16.8173 5.72601 16.884 5.90727C16.9507 6.08852 16.9772 6.2821 16.9617 6.47462L19.6204 6.68795C19.6666 6.11052 19.587 5.52993 19.3868 4.98633C19.1866 4.44273 18.8708 3.94908 18.4611 3.53953C18.0515 3.12998 17.5577 2.8143 17.0141 2.61432C16.4704 2.41434 15.8898 2.33349 15.3124 2.37995L15.5257 5.03861ZM12.0724 3.65062C12.483 4.13309 13.0023 4.51113 13.5877 4.7536C14.173 4.99608 14.8075 5.09605 15.439 5.04528L15.2257 2.38662C15.0152 2.40372 14.8036 2.37057 14.6085 2.2899C14.4133 2.20923 14.24 2.08334 14.103 1.92262L12.0724 3.65062ZM14.047 1.85595C13.6715 1.41478 13.2033 1.06044 12.6774 0.817449C12.1515 0.574457 11.579 0.448608 10.9997 0.448608C10.4204 0.448608 9.84792 0.574457 9.322 0.817449C8.79607 1.06044 8.32921 1.41478 7.9537 1.85595L9.98437 3.58395C10.1095 3.43666 10.2652 3.31835 10.4407 3.23721C10.6161 3.15608 10.8071 3.11405 11.0004 3.11405C11.1937 3.11405 11.3846 3.15608 11.5601 3.23721C11.7355 3.31835 11.8912 3.43666 12.0164 3.58395L14.047 1.85595ZM9.92837 18.3493C9.57221 17.9307 9.13361 17.59 8.63994 17.3484C8.14626 17.1069 7.6081 16.9696 7.05903 16.9453L6.9417 19.6093C7.12465 19.6175 7.30395 19.6632 7.46843 19.7437C7.6329 19.8243 7.77903 19.9378 7.8977 20.0773L9.92837 18.3493ZM7.05903 16.9466C6.89322 16.9394 6.72712 16.9425 6.5617 16.9559L6.77503 19.6146C6.83045 19.6098 6.88612 19.6085 6.9417 19.6106L7.05903 16.9466ZM8.3337 28.3333V18.2773H5.66703V28.3333H8.3337ZM15.439 16.9546C15.2732 16.9411 15.108 16.938 14.9417 16.9453L15.059 19.6093C15.1146 19.6071 15.1703 19.6085 15.2257 19.6133L15.439 16.9546ZM14.9417 16.9453C14.3926 16.9696 13.8545 17.1069 13.3608 17.3484C12.8671 17.59 12.4285 17.9307 12.0724 18.3493L14.103 20.0773C14.2218 19.938 14.368 19.8248 14.5325 19.7445C14.6969 19.6642 14.8762 19.6186 15.059 19.6106L14.9417 16.9453ZM13.667 18.2786V28.3333H16.3337V18.2773L13.667 18.2786Z" fill="white"/>
<path d="M13.6673 9.66663L9.66732 13.6666L8.33398 12.3333" stroke="white" stroke-width="2" stroke-linecap="round" stroke-linejoin="round"/>
</svg>
