<svg width="357" height="339" viewBox="0 0 357 339" fill="none" xmlns="http://www.w3.org/2000/svg">
<path d="M146.379 226.52L137.118 208.779C117.052 170.142 70.8398 135.61 54.6948 125.56L69.9446 102.916C89.0531 114.805 127.239 144.25 151.194 179.242C195.493 127.153 258.097 73.5015 341.909 15.6216L356.202 37.0699C266.679 98.9025 202.253 155.434 159.406 209.913L146.379 226.52Z" fill="#297FB6"/>
<path opacity="0.2" d="M159.335 339C66.075 339 -4.89138 262.959 1.15811 169.5C7.20761 76.0411 87.9699 0 181.261 0C274.552 0 345.488 76.0411 339.438 169.5C333.389 262.959 252.504 339 159.335 339ZM180.831 3.07734C89.2596 3.07734 9.9406 77.7336 4.01394 169.5C-1.91272 261.266 67.7332 335.923 159.305 335.923C250.876 335.923 330.195 261.266 336.153 169.5C342.11 77.7336 272.526 3.07734 180.831 3.07734Z" fill="#297FB6"/>
<path opacity="0.2" d="M242.697 246.583C287.818 202.904 291.214 133.219 250.282 90.9373C209.351 48.6554 139.593 49.7878 94.4725 93.4666C49.3522 137.145 45.9562 206.83 86.8873 249.112C127.818 291.394 197.577 290.262 242.697 246.583Z" fill="#297FB6"/>
</svg>
