<svg width="24" height="30" viewBox="0 0 24 30" fill="none" xmlns="http://www.w3.org/2000/svg">
<path d="M0 0.333374H16.552L24 7.78137V29.6667H0V0.333374ZM2.66667 3.00004V27H21.3333V8.88537L15.448 3.00004H2.66667ZM12 11C11.4696 11 10.9609 11.2108 10.5858 11.5858C10.2107 11.9609 10 12.4696 10 13C10 13.5305 10.2107 14.0392 10.5858 14.4143C10.9609 14.7893 11.4696 15 12 15C12.5304 15 13.0391 14.7893 13.4142 14.4143C13.7893 14.0392 14 13.5305 14 13C14 12.4696 13.7893 11.9609 13.4142 11.5858C13.0391 11.2108 12.5304 11 12 11ZM7.33333 13C7.33333 12.3872 7.45404 11.7804 7.68856 11.2142C7.92308 10.648 8.26683 10.1335 8.70017 9.70021C9.13351 9.26687 9.64796 8.92313 10.2141 8.6886C10.7803 8.45408 11.3872 8.33337 12 8.33337C12.6128 8.33337 13.2197 8.45408 13.7859 8.6886C14.352 8.92313 14.8665 9.26687 15.2998 9.70021C15.7332 10.1335 16.0769 10.648 16.3114 11.2142C16.546 11.7804 16.6667 12.3872 16.6667 13C16.6667 14.2377 16.175 15.4247 15.2998 16.2999C14.4247 17.175 13.2377 17.6667 12 17.6667C10.7623 17.6667 9.57534 17.175 8.70017 16.2999C7.825 15.4247 7.33333 14.2377 7.33333 13ZM4 24.3334C4 22.9189 4.5619 21.5623 5.5621 20.5621C6.56229 19.5619 7.91885 19 9.33333 19H14.6667C16.0812 19 17.4377 19.5619 18.4379 20.5621C19.4381 21.5623 20 22.9189 20 24.3334V25.6667H17.3333V24.3334C17.3333 23.6261 17.0524 22.9479 16.5523 22.4478C16.0522 21.9477 15.3739 21.6667 14.6667 21.6667H9.33333C8.62609 21.6667 7.94781 21.9477 7.44772 22.4478C6.94762 22.9479 6.66667 23.6261 6.66667 24.3334V25.6667H4V24.3334Z" fill="white"/>
</svg>
