<svg width="242" height="241" viewBox="0 0 242 241" fill="none" xmlns="http://www.w3.org/2000/svg">
<g opacity="0.8" filter="url(#filter0_d_915_1105)">
<ellipse cx="72.2465" cy="72.1608" rx="72.2465" ry="72.1608" transform="matrix(0.973257 -0.229721 0.230488 0.973075 34 57.193)" fill="white"/>
</g>
<g filter="url(#filter1_d_915_1105)">
<ellipse cx="54.7322" cy="54.6673" rx="54.7322" ry="54.6673" transform="matrix(0.973234 -0.229815 0.230393 0.973097 55.0764 70.191)" fill="white"/>
</g>
<g clip-path="url(#clip0_915_1105)">
<path d="M111.375 141.523C111.069 141.129 110.644 140.781 110.477 140.335C109.586 137.951 108.748 135.546 107.917 133.14C107.778 132.738 107.622 132.631 107.194 132.725C104.744 133.254 102.284 133.739 99.8333 134.266C99.2332 134.394 98.7208 134.36 98.3379 133.84C97.9455 133.307 98.1207 132.803 98.4171 132.284C100.673 128.324 102.913 124.354 105.178 120.399C105.407 119.999 105.388 119.781 105.046 119.453C94.0018 108.835 96.2413 90.806 109.535 83.2378C111.185 82.2981 112.933 81.59 114.77 81.1028C115.663 80.8652 116.329 81.1532 116.508 81.8625C116.692 82.591 116.291 83.1478 115.399 83.4095C108.41 85.4557 103.641 89.9046 101.369 96.8103C97.5266 108.489 104.993 120.83 117.106 123.02C127.967 124.985 138.39 117.918 140.627 107.073C142.779 96.6399 136.348 86.1926 126.064 83.4215C125.585 83.2918 125.077 83.1394 124.968 82.6246C124.89 82.2573 124.955 81.7881 125.13 81.4556C125.377 80.984 125.902 80.9024 126.395 81.0428C127.217 81.2756 128.05 81.4964 128.836 81.8229C136.965 85.1977 141.889 91.2104 143.151 99.9259C144.248 107.499 141.836 114.024 136.399 119.411C136.039 119.768 135.994 120.008 136.249 120.452C138.508 124.387 140.75 128.333 142.963 132.295C143.165 132.655 143.257 133.175 143.175 133.573C143.046 134.201 142.418 134.441 141.685 134.288C139.191 133.772 136.696 133.265 134.207 132.726C133.779 132.633 133.621 132.738 133.482 133.141C132.657 135.528 131.797 137.903 130.966 140.289C130.783 140.815 130.537 141.264 130.024 141.524C129.785 141.524 129.546 141.524 129.306 141.524C128.998 141.175 128.619 140.865 128.391 140.469C125.935 136.192 123.505 131.9 121.066 127.613C120.962 127.43 120.847 127.253 120.699 127.012C120.551 127.252 120.436 127.43 120.332 127.613C117.893 131.9 115.462 136.192 113.006 140.469C112.778 140.865 112.399 141.175 112.09 141.524C111.854 141.523 111.614 141.523 111.375 141.523ZM111.982 137.457C114.254 133.462 116.459 129.586 118.694 125.656C114.487 125.237 110.739 123.826 107.341 121.404C105.445 124.747 103.581 128.034 101.67 131.404C101.949 131.368 102.108 131.359 102.261 131.328C104.189 130.928 106.116 130.525 108.043 130.124C108.923 129.941 109.39 130.198 109.698 131.054C110.069 132.083 110.427 133.116 110.794 134.146C111.172 135.207 111.554 136.266 111.982 137.457ZM139.751 131.434C137.818 128.027 135.947 124.729 134.159 121.579C132.294 122.503 130.538 123.548 128.655 124.255C126.78 124.958 124.777 125.321 122.811 125.838C124.952 129.601 127.153 133.47 129.414 137.442C129.538 137.117 129.61 136.936 129.675 136.752C130.354 134.842 131.027 132.93 131.712 131.022C132.006 130.203 132.489 129.943 133.332 130.117C134.15 130.285 134.968 130.456 135.786 130.623C137.067 130.886 138.347 131.148 139.751 131.434Z" fill="#2E9FC1"/>
<path d="M102.768 103.043C102.758 93.1571 110.811 85.0957 120.698 85.0945C130.585 85.0933 138.64 93.1523 138.632 103.039C138.623 112.902 130.595 120.939 120.731 120.96C110.851 120.979 102.778 112.928 102.768 103.043ZM105.158 102.998C105.144 111.567 112.12 118.562 120.687 118.569C129.232 118.576 136.211 111.628 136.242 103.083C136.273 94.5132 129.311 87.5068 120.742 87.484C112.171 87.4636 105.173 94.4304 105.158 102.998Z" fill="#2E9FC1"/>
<path d="M120.698 80.3167C121.334 80.3155 121.873 80.84 121.891 81.4749C121.909 82.1325 121.36 82.6966 120.703 82.6978C120.044 82.699 119.495 82.1373 119.511 81.4785C119.525 80.8424 120.062 80.3179 120.698 80.3167Z" fill="#87BD41"/>
<path d="M113.181 111.987C113.429 110.484 113.575 108.925 113.964 107.429C114.331 106.02 114.09 105.019 112.916 104.087C111.784 103.188 110.831 102.065 109.787 101.052C109.383 100.659 109.157 100.225 109.346 99.6642C109.534 99.1038 109.976 98.9045 110.535 98.8253C112.426 98.5577 114.313 98.2577 116.203 97.984C116.568 97.9312 116.795 97.7872 116.964 97.4368C117.797 95.7182 118.666 94.0176 119.511 92.3049C119.756 91.8081 120.074 91.4348 120.674 91.424C121.303 91.412 121.636 91.7937 121.892 92.3121C122.728 94.0068 123.591 95.6882 124.412 97.39C124.601 97.78 124.85 97.9384 125.262 97.996C127.153 98.2613 129.041 98.5565 130.931 98.8313C131.467 98.9093 131.881 99.1362 132.055 99.6726C132.228 100.207 132.036 100.636 131.647 101.017C130.252 102.383 128.872 103.763 127.471 105.124C127.215 105.373 127.145 105.603 127.209 105.961C127.554 107.901 127.865 109.845 128.192 111.788C128.274 112.284 128.141 112.705 127.745 113.011C127.302 113.353 126.829 113.323 126.346 113.07C124.635 112.176 122.914 111.302 121.214 110.391C120.832 110.187 120.547 110.204 120.172 110.403C118.469 111.31 116.755 112.196 115.034 113.07C114.101 113.545 113.157 112.994 113.181 111.987ZM125.447 109.9C125.224 108.555 125.078 107.31 124.799 106.097C124.563 105.073 124.771 104.322 125.576 103.61C126.525 102.773 127.353 101.799 128.265 100.854C126.996 100.662 125.726 100.42 124.446 100.292C123.493 100.197 122.883 99.8119 122.494 98.9105C121.978 97.7152 121.343 96.5703 120.701 95.2873C120.061 96.5679 119.426 97.7116 118.91 98.9069C118.521 99.8059 117.915 100.196 116.961 100.292C115.679 100.419 114.409 100.663 113.042 100.87C113.256 101.095 113.399 101.253 113.551 101.403C114.431 102.271 115.307 103.141 116.196 103.999C116.632 104.419 116.802 104.88 116.686 105.502C116.419 106.925 116.21 108.359 115.958 109.904C117.257 109.233 118.474 108.653 119.64 107.984C120.381 107.558 121.017 107.553 121.758 107.975C122.926 108.641 124.142 109.226 125.447 109.9Z" fill="#87BD41"/>
</g>
<defs>
<filter id="filter0_d_915_1105" x="0.675552" y="0.645447" width="240.542" height="240.338" filterUnits="userSpaceOnUse" color-interpolation-filters="sRGB">
<feFlood flood-opacity="0" result="BackgroundImageFix"/>
<feColorMatrix in="SourceAlpha" type="matrix" values="0 0 0 0 0 0 0 0 0 0 0 0 0 0 0 0 0 0 127 0" result="hardAlpha"/>
<feOffset dy="10"/>
<feGaussianBlur stdDeviation="24"/>
<feColorMatrix type="matrix" values="0 0 0 0 0.156863 0 0 0 0 0.168627 0 0 0 0 0.435294 0 0 0 0.1 0"/>
<feBlend mode="normal" in2="BackgroundImageFix" result="effect1_dropShadow_915_1105"/>
<feBlend mode="normal" in="SourceGraphic" in2="effect1_dropShadow_915_1105" result="shape"/>
</filter>
<filter id="filter1_d_915_1105" x="18.1903" y="18.1335" width="205.497" height="205.352" filterUnits="userSpaceOnUse" color-interpolation-filters="sRGB">
<feFlood flood-opacity="0" result="BackgroundImageFix"/>
<feColorMatrix in="SourceAlpha" type="matrix" values="0 0 0 0 0 0 0 0 0 0 0 0 0 0 0 0 0 0 127 0" result="hardAlpha"/>
<feOffset dy="10"/>
<feGaussianBlur stdDeviation="24"/>
<feColorMatrix type="matrix" values="0 0 0 0 0.156863 0 0 0 0 0.168627 0 0 0 0 0.435294 0 0 0 0.1 0"/>
<feBlend mode="normal" in2="BackgroundImageFix" result="effect1_dropShadow_915_1105"/>
<feBlend mode="normal" in="SourceGraphic" in2="effect1_dropShadow_915_1105" result="shape"/>
</filter>
<clipPath id="clip0_915_1105">
<rect width="61.331" height="61.331" fill="white" transform="translate(89.8553 80.1919)"/>
</clipPath>
</defs>
</svg>
