<svg width="26" height="30" viewBox="0 0 26 30" fill="none" xmlns="http://www.w3.org/2000/svg">
<path d="M6.9998 3.66675C4.92513 3.72941 3.68913 3.96008 2.83313 4.81608C1.66113 5.98941 1.66113 7.87608 1.66113 11.6507V20.3254C1.66113 24.1014 1.66113 25.9881 2.83313 27.1614C4.0038 28.3334 5.89047 28.3334 9.66113 28.3334H16.3278C20.0998 28.3334 21.9851 28.3334 23.1558 27.1601C24.3291 25.9881 24.3291 24.1014 24.3291 20.3254V11.6507C24.3291 7.87741 24.3291 5.98941 23.1558 4.81608C22.3011 3.96008 21.0638 3.72941 18.9891 3.66675" stroke="white" stroke-width="1.5" stroke-linecap="round" stroke-linejoin="round"/>
<path d="M5.66602 12.3334H10.9993M14.9993 13.6667C14.9993 13.6667 15.666 13.6667 16.3327 15.0001C16.3327 15.0001 18.45 11.6667 20.3327 11.0001M5.66602 20.3334H10.9993M14.9993 21.6667C14.9993 21.6667 15.666 21.6667 16.3327 23.0001C16.3327 23.0001 18.45 19.6667 20.3327 19.0001M6.99402 4.00008C6.99402 2.71208 8.03935 1.66675 9.32735 1.66675H16.6607C17.2795 1.66675 17.873 1.91258 18.3106 2.35017C18.7482 2.78775 18.994 3.38124 18.994 4.00008C18.994 4.61892 18.7482 5.21241 18.3106 5.65C17.873 6.08758 17.2795 6.33341 16.6607 6.33341H9.32735C8.70851 6.33341 8.11502 6.08758 7.67743 5.65C7.23985 5.21241 6.99402 4.61892 6.99402 4.00008Z" stroke="white" stroke-width="1.5" stroke-linecap="round" stroke-linejoin="round"/>
</svg>
