<svg width="29" height="17" viewBox="0 0 29 17" fill="none" xmlns="http://www.w3.org/2000/svg">
<path d="M7.55117 13.4122C8.45783 12.4344 9.34672 11.4744 10.2178 10.5322C13.2223 7.27882 16.2445 4.04327 19.2489 0.772155C19.6223 0.363267 20.0489 0.132155 20.6001 0.238822C21.6312 0.434377 22.0401 1.64327 21.3289 2.44327C20.7067 3.15438 20.0489 3.82993 19.4089 4.52327C16.1023 8.0966 12.7778 11.6699 9.47117 15.261C8.31561 16.5055 6.76895 16.5055 5.61339 15.2433C3.99561 13.501 2.37783 11.7766 0.777835 10.0344C0.0489456 9.23438 0.404501 8.02549 1.43561 7.79438C1.95117 7.66993 2.37783 7.84771 2.75117 8.23882C4.19117 9.80327 5.63117 11.3499 7.07117 12.9144C7.21339 13.0744 7.37339 13.2344 7.55117 13.4122Z" fill="#87BD41"/>
<path d="M14.9289 15.8121C14.4489 15.7943 14.0222 15.5277 13.8089 15.0121C13.5778 14.5143 13.6667 13.9988 14.0578 13.5721C14.7511 12.8077 15.4622 12.0432 16.1733 11.2788C19.4267 7.77654 22.68 4.25654 25.9156 0.754322C26.2889 0.345433 26.7156 0.114322 27.2667 0.238766C28.2978 0.4521 28.6711 1.66099 27.96 2.46099C27.32 3.1721 26.6445 3.88321 25.9867 4.59432C22.68 8.14988 19.3911 11.7232 16.0845 15.2788C15.8 15.6165 15.4622 15.8121 14.9289 15.8121Z" fill="#87BD41"/>
</svg>
