<svg width="32" height="32" viewBox="0 0 32 32" fill="none" xmlns="http://www.w3.org/2000/svg">
<path d="M14.768 4.99395C15.0332 4.53515 15.4697 4.20036 15.9815 4.06311C16.4934 3.92587 17.0388 3.99738 17.498 4.26195L22 6.86195C22.4593 7.12718 22.7945 7.56401 22.9318 8.07636C23.0691 8.5887 22.9972 9.13459 22.732 9.59395L20.19 14H22C22.2652 14 22.5196 14.1053 22.7071 14.2928C22.8946 14.4804 23 14.7347 23 15C23 15.2652 22.8946 15.5195 22.7071 15.7071C22.5196 15.8946 22.2652 16 22 16H10C9.73478 16 9.48043 15.8946 9.29289 15.7071C9.10536 15.5195 9 15.2652 9 15C9 14.7347 9.10536 14.4804 9.29289 14.2928C9.48043 14.1053 9.73478 14 10 14H11.35C11.0213 13.6911 10.8067 13.2802 10.741 12.834C10.6753 12.3878 10.7624 11.9325 10.988 11.542L14.768 4.99395ZM15.242 14H17.88L21 8.59395L16.5 5.99395L12.72 12.542L15.242 14ZM9.03 9.99995H9.568L9.254 10.542C8.98 11.018 8.814 11.526 8.75 12.04C8.53437 12.103 8.34626 12.2369 8.216 12.42L4.228 18H27.772L23.784 12.42C23.7191 12.3286 23.6393 12.2488 23.548 12.184L24.464 10.594C24.492 10.546 24.5187 10.4966 24.544 10.446C24.8844 10.6554 25.1795 10.9308 25.412 11.256L29.442 16.896C29.804 17.406 30 18.016 30 18.64V25C30 25.7956 29.6839 26.5587 29.1213 27.1213C28.5587 27.6839 27.7956 28 27 28H5C4.20435 28 3.44129 27.6839 2.87868 27.1213C2.31607 26.5587 2 25.7956 2 25V18.64C2.00071 18.0151 2.19648 17.4061 2.56 16.898L6.588 11.258C6.86525 10.8692 7.23128 10.5523 7.65567 10.3335C8.08005 10.1147 8.55253 10.0003 9.03 9.99995ZM28 20H4V25C4 25.2652 4.10536 25.5195 4.29289 25.7071C4.48043 25.8946 4.73478 26 5 26H27C27.2652 26 27.5196 25.8946 27.7071 25.7071C27.8946 25.5195 28 25.2652 28 25V20Z" fill="white"/>
</svg>
