<svg width="33" height="32" viewBox="0 0 33 32" fill="none" xmlns="http://www.w3.org/2000/svg">
<path d="M17.4997 6.66663H9.49967C9.23446 6.66663 8.9801 6.77198 8.79257 6.95952C8.60503 7.14706 8.49967 7.40141 8.49967 7.66663C8.49967 7.93184 8.60503 8.1862 8.79257 8.37373C8.9801 8.56127 9.23446 8.66663 9.49967 8.66663H17.4997C17.7649 8.66663 18.0192 8.56127 18.2068 8.37373C18.3943 8.1862 18.4997 7.93184 18.4997 7.66663C18.4997 7.40141 18.3943 7.14706 18.2068 6.95952C18.0192 6.77198 17.7649 6.66663 17.4997 6.66663ZM18.4997 12.3333C18.4962 12.0691 18.3898 11.8168 18.203 11.63C18.0162 11.4432 17.7638 11.3367 17.4997 11.3333H6.83301C6.56779 11.3333 6.31344 11.4386 6.1259 11.6262C5.93836 11.8137 5.83301 12.0681 5.83301 12.3333C5.83301 12.5985 5.93836 12.8529 6.1259 13.0404C6.31344 13.2279 6.56779 13.3333 6.83301 13.3333H17.4997C17.7638 13.3298 18.0162 13.2234 18.203 13.0366C18.3898 12.8498 18.4962 12.5974 18.4997 12.3333ZM6.83301 16C6.56779 16 6.31344 16.1053 6.1259 16.2929C5.93836 16.4804 5.83301 16.7347 5.83301 17C5.83301 17.2652 5.93836 17.5195 6.1259 17.7071C6.31344 17.8946 6.56779 18 6.83301 18H14.1663C14.4316 18 14.6859 17.8946 14.8734 17.7071C15.061 17.5195 15.1663 17.2652 15.1663 17C15.1663 16.7347 15.061 16.4804 14.8734 16.2929C14.6859 16.1053 14.4316 16 14.1663 16H6.83301Z" fill="white"/>
<path d="M15.5667 23.5333C15.5406 23.4737 15.4977 23.423 15.4433 23.3875C15.3888 23.3519 15.3251 23.3331 15.26 23.3333H3.83333C3.65652 23.3333 3.48695 23.2631 3.36193 23.1381C3.2369 23.013 3.16667 22.8435 3.16667 22.6667V3.33333C3.16667 3.15652 3.2369 2.98695 3.36193 2.86193C3.48695 2.7369 3.65652 2.66667 3.83333 2.66667H21.1667C21.3435 2.66667 21.513 2.7369 21.6381 2.86193C21.7631 2.98695 21.8333 3.15652 21.8333 3.33333V16.76C21.8331 16.8251 21.8519 16.8888 21.8875 16.9433C21.923 16.9977 21.9737 17.0406 22.0333 17.0667C22.0953 17.093 22.1636 17.1007 22.2299 17.0889C22.2962 17.0771 22.3576 17.0462 22.4067 17L24.1133 15.2933C24.357 15.0378 24.4951 14.6997 24.5 14.3467V2.66667C24.5 1.95942 24.219 1.28115 23.719 0.781049C23.2189 0.280952 22.5406 0 21.8333 0L3.16667 0C2.45942 0 1.78115 0.280952 1.28105 0.781049C0.780952 1.28115 0.5 1.95942 0.5 2.66667L0.5 23.3333C0.5 24.0406 0.780952 24.7189 1.28105 25.219C1.78115 25.719 2.45942 26 3.16667 26H13.66C13.8026 26.0009 13.9416 25.956 14.0568 25.872C14.172 25.788 14.2572 25.6693 14.3 25.5333C14.4227 25.1168 14.6526 24.7398 14.9667 24.44L15.5 23.9067C15.5462 23.8576 15.5771 23.7962 15.5889 23.7299C15.6007 23.6636 15.593 23.5953 15.5667 23.5333ZM16.58 26.84C16.5371 26.798 16.4836 26.7684 16.4252 26.7543C16.3668 26.7402 16.3057 26.7421 16.2484 26.7599C16.191 26.7776 16.1395 26.8106 16.0993 26.8552C16.0591 26.8998 16.0317 26.9544 16.02 27.0133L15.1667 31.2C15.1472 31.3076 15.154 31.4184 15.1865 31.5229C15.219 31.6273 15.2763 31.7224 15.3533 31.8C15.4129 31.8641 15.4851 31.9149 15.5655 31.9494C15.6459 31.9838 15.7326 32.0011 15.82 32H15.9533L20.14 31.16C20.1993 31.1498 20.2544 31.1232 20.2993 31.0831C20.3441 31.043 20.3767 30.9911 20.3933 30.9333C20.4147 30.8761 20.4185 30.8138 20.4043 30.7544C20.39 30.6951 20.3583 30.6413 20.3133 30.6L16.58 26.84ZM31.4733 15.6933C31.15 15.3684 30.7656 15.1106 30.3423 14.9346C29.919 14.7587 29.4651 14.6681 29.0067 14.6681C28.5483 14.6681 28.0944 14.7587 27.671 14.9346C27.2477 15.1106 26.8634 15.3684 26.54 15.6933L17.8333 24.36C17.7696 24.4199 17.7187 24.4921 17.684 24.5724C17.6492 24.6527 17.6313 24.7392 17.6313 24.8267C17.6313 24.9141 17.6492 25.0007 17.684 25.0809C17.7187 25.1612 17.7696 25.2335 17.8333 25.2933L21.8333 29.2933C21.8932 29.3571 21.9655 29.4079 22.0457 29.4427C22.126 29.4774 22.2125 29.4954 22.3 29.4954C22.3875 29.4954 22.474 29.4774 22.5543 29.4427C22.6345 29.4079 22.7068 29.3571 22.7667 29.2933L31.4467 20.6267C31.7733 20.3051 32.0333 19.9221 32.2115 19.4997C32.3897 19.0774 32.4828 18.624 32.4852 18.1655C32.4877 17.7071 32.3996 17.2527 32.2259 16.8285C32.0523 16.4042 31.7965 16.0185 31.4733 15.6933Z" fill="white"/>
</svg>
