<svg width="32" height="32" viewBox="0 0 32 32" fill="none" xmlns="http://www.w3.org/2000/svg">
<path d="M27 7.99902H22C22 6.40772 21.3679 4.8816 20.2426 3.75638C19.1174 2.63116 17.5913 1.99902 16 1.99902C14.4087 1.99902 12.8826 2.63116 11.7574 3.75638C10.6321 4.8816 10 6.40772 10 7.99902H5C4.46957 7.99902 3.96086 8.20974 3.58579 8.58481C3.21071 8.95988 3 9.46859 3 9.99902V24.999C3 25.5295 3.21071 26.0382 3.58579 26.4132C3.96086 26.7883 4.46957 26.999 5 26.999H27C27.5304 26.999 28.0391 26.7883 28.4142 26.4132C28.7893 26.0382 29 25.5295 29 24.999V9.99902C29 9.46859 28.7893 8.95988 28.4142 8.58481C28.0391 8.20974 27.5304 7.99902 27 7.99902ZM16 3.99902C17.0609 3.99902 18.0783 4.42045 18.8284 5.1706C19.5786 5.92074 20 6.93816 20 7.99902H12C12 6.93816 12.4214 5.92074 13.1716 5.1706C13.9217 4.42045 14.9391 3.99902 16 3.99902ZM27 24.999H5V9.99902H10V11.999C10 12.2642 10.1054 12.5186 10.2929 12.7061C10.4804 12.8937 10.7348 12.999 11 12.999C11.2652 12.999 11.5196 12.8937 11.7071 12.7061C11.8946 12.5186 12 12.2642 12 11.999V9.99902H20V11.999C20 12.2642 20.1054 12.5186 20.2929 12.7061C20.4804 12.8937 20.7348 12.999 21 12.999C21.2652 12.999 21.5196 12.8937 21.7071 12.7061C21.8946 12.5186 22 12.2642 22 11.999V9.99902H27V24.999Z" fill="white"/>
</svg>
