<svg width="32" height="32" viewBox="0 0 32 32" fill="none" xmlns="http://www.w3.org/2000/svg">
<path opacity="0.5" d="M3.23233 4.02573C3.40211 3.82212 3.6458 3.69425 3.90983 3.67025C4.17385 3.64624 4.43661 3.72807 4.64033 3.89773L6.64033 5.5644C6.83681 5.73629 6.95828 5.97821 6.9788 6.23846C6.99931 6.49871 6.91724 6.75667 6.75011 6.95722C6.58298 7.15777 6.34406 7.28502 6.08437 7.31177C5.82468 7.33853 5.56483 7.26267 5.36033 7.1004L3.36033 5.43373C3.15671 5.26395 3.02884 5.02026 3.00484 4.75623C2.98084 4.49221 3.06266 4.22945 3.23233 4.02573ZM28.7683 4.02573C28.938 4.22945 29.0198 4.49221 28.9958 4.75623C28.9718 5.02026 28.8439 5.26395 28.6403 5.43373L26.6403 7.1004C26.54 7.1882 26.4231 7.25504 26.2965 7.29699C26.1699 7.33894 26.0362 7.35515 25.9033 7.34467C25.7704 7.3342 25.6409 7.29724 25.5225 7.23598C25.404 7.17472 25.299 7.09039 25.2137 6.98795C25.1283 6.88551 25.0643 6.76704 25.0254 6.6395C24.9865 6.51196 24.9735 6.37792 24.9872 6.24529C25.0008 6.11265 25.0409 5.98408 25.105 5.86715C25.169 5.75021 25.2559 5.64728 25.3603 5.5644L27.3603 3.89773C27.564 3.72807 27.8268 3.64624 28.0908 3.67025C28.3549 3.69425 28.5985 3.82212 28.7683 4.02573ZM1.66699 10.9991C1.66699 10.7339 1.77235 10.4795 1.95989 10.292C2.14742 10.1044 2.40178 9.99907 2.66699 9.99907H5.33366C5.59888 9.99907 5.85323 10.1044 6.04077 10.292C6.2283 10.4795 6.33366 10.7339 6.33366 10.9991C6.33366 11.2643 6.2283 11.5186 6.04077 11.7062C5.85323 11.8937 5.59888 11.9991 5.33366 11.9991H2.66699C2.40178 11.9991 2.14742 11.8937 1.95989 11.7062C1.77235 11.5186 1.66699 11.2643 1.66699 10.9991ZM25.667 10.9991C25.667 10.7339 25.7723 10.4795 25.9599 10.292C26.1474 10.1044 26.4018 9.99907 26.667 9.99907H29.3337C29.5989 9.99907 29.8532 10.1044 30.0408 10.292C30.2283 10.4795 30.3337 10.7339 30.3337 10.9991C30.3337 11.2643 30.2283 11.5186 30.0408 11.7062C29.8532 11.8937 29.5989 11.9991 29.3337 11.9991H26.667C26.4018 11.9991 26.1474 11.8937 25.9599 11.7062C25.7723 11.5186 25.667 11.2643 25.667 10.9991ZM6.89366 15.8857C7.01221 16.1229 7.03175 16.3973 6.948 16.6489C6.86424 16.9004 6.68403 17.1084 6.44699 17.2271L4.44699 18.2271C4.32938 18.2869 4.20107 18.3229 4.06948 18.333C3.93789 18.343 3.80561 18.3269 3.68027 18.2856C3.55493 18.2443 3.439 18.1785 3.33919 18.0922C3.23937 18.0059 3.15763 17.9006 3.09868 17.7826C3.03972 17.6645 3.00473 17.5359 2.99571 17.4042C2.98669 17.2726 3.00382 17.1404 3.04611 17.0154C3.08841 16.8904 3.15503 16.775 3.24214 16.6758C3.32925 16.5767 3.43513 16.4958 3.55366 16.4377L5.55366 15.4377C5.79094 15.3193 6.06556 15.2999 6.31711 15.3839C6.56865 15.468 6.77519 15.6485 6.89366 15.8857ZM25.1083 15.8857C25.2268 15.6488 25.4344 15.4686 25.6857 15.3846C25.9369 15.3006 26.2112 15.3197 26.4483 15.4377L28.4483 16.4377C28.5669 16.4958 28.6727 16.5767 28.7598 16.6758C28.847 16.775 28.9136 16.8904 28.9559 17.0154C28.9982 17.1404 29.0153 17.2726 29.0063 17.4042C28.9973 17.5359 28.9623 17.6645 28.9033 17.7826C28.8444 17.9006 28.7626 18.0059 28.6628 18.0922C28.563 18.1785 28.4471 18.2443 28.3217 18.2856C28.1964 18.3269 28.0641 18.343 27.9325 18.333C27.8009 18.3229 27.6726 18.2869 27.555 18.2271L25.555 17.2271C25.3177 17.1086 25.1372 16.9007 25.0532 16.6492C24.9692 16.3976 24.9899 16.123 25.1083 15.8857Z" fill="white"/>
<path d="M16 4.99902C19.904 4.99902 23 8.03236 23 11.6924C23 13.9724 22.4133 15.1337 21.6693 16.1897C21.5004 16.4261 21.3151 16.675 21.1133 16.9364C20.4147 17.8497 19.5747 18.9497 18.9787 20.535C18.857 20.8619 18.6992 21.174 18.508 21.4657L18.4333 21.5724C18.2701 21.8059 18.0824 22.0214 17.8733 22.215C17.332 22.711 16.6813 22.999 16 22.999C15.32 22.999 14.668 22.711 14.1253 22.215C13.9162 22.0209 13.7285 21.805 13.5653 21.571L13.492 21.4644C13.3009 21.1731 13.143 20.8614 13.0213 20.535C12.4253 18.9484 11.5853 17.8497 10.8867 16.935C10.6965 16.6898 10.5112 16.4408 10.3307 16.1884C9.588 15.135 9 13.9724 9 11.691C9 8.03236 12.0973 4.99902 16 4.99902ZM20.2227 22.491C20.4787 22.091 20.6893 21.6684 20.8507 21.2377C21.3333 19.9537 21.9413 19.155 22.608 18.2817C22.8347 17.9844 23.068 17.6777 23.3053 17.3404C24.252 15.9964 25 14.4404 25 11.691C25 6.85369 20.9333 2.99902 16 2.99902C11.0667 2.99902 7 6.85369 7 11.6924C7 14.439 7.748 15.9964 8.69467 17.3404C8.932 17.6777 9.16533 17.9844 9.392 18.2817C10.0587 19.155 10.6667 19.9537 11.1493 21.2377C11.3107 21.6684 11.5227 22.091 11.7773 22.491L12.0733 25.4457C12.1717 26.4188 12.6278 27.3206 13.3533 27.9765C14.0788 28.6324 15.022 28.9955 16 28.9955C16.978 28.9955 17.9212 28.6324 18.6467 27.9765C19.3722 27.3206 19.8283 26.4188 19.9267 25.4457L20.2227 22.491ZM18.0093 24.531L17.9373 25.2457C17.8901 25.7267 17.6655 26.1729 17.3075 26.4975C16.9494 26.8222 16.4833 27.002 16 27.002C15.5167 27.002 15.0506 26.8222 14.6925 26.4975C14.3345 26.1729 14.1099 25.7267 14.0627 25.2457L13.992 24.531C14.592 24.827 15.2653 24.999 16 24.999C16.7333 24.999 17.408 24.8257 18.008 24.531" fill="white"/>
</svg>
