<svg width="32" height="32" viewBox="0 0 32 32" fill="none" xmlns="http://www.w3.org/2000/svg">
<path d="M9.9998 4.66663C7.92513 4.72929 6.68913 4.95996 5.83313 5.81596C4.66113 6.98929 4.66113 8.87596 4.66113 12.6506V21.3253C4.66113 25.1013 4.66113 26.988 5.83313 28.1613C7.0038 29.3333 8.89047 29.3333 12.6611 29.3333H19.3278C23.0998 29.3333 24.9851 29.3333 26.1558 28.16C27.3291 26.988 27.3291 25.1013 27.3291 21.3253V12.6506C27.3291 8.87729 27.3291 6.98929 26.1558 5.81596C25.3011 4.95996 24.0638 4.72929 21.9891 4.66663" stroke="white" stroke-width="1.5" stroke-linecap="round" stroke-linejoin="round"/>
<path d="M8.66602 13.3333H13.9993M17.9993 14.6666C17.9993 14.6666 18.666 14.6666 19.3327 16C19.3327 16 21.45 12.6666 23.3327 12M8.66602 21.3333H13.9993M17.9993 22.6666C17.9993 22.6666 18.666 22.6666 19.3327 24C19.3327 24 21.45 20.6666 23.3327 20M9.99402 4.99996C9.99402 3.71196 11.0393 2.66663 12.3273 2.66663H19.6607C20.2795 2.66663 20.873 2.91246 21.3106 3.35004C21.7482 3.78763 21.994 4.38112 21.994 4.99996C21.994 5.6188 21.7482 6.21229 21.3106 6.64988C20.873 7.08746 20.2795 7.33329 19.6607 7.33329H12.3273C11.7085 7.33329 11.115 7.08746 10.6774 6.64988C10.2398 6.21229 9.99402 5.6188 9.99402 4.99996Z" stroke="white" stroke-width="1.5" stroke-linecap="round" stroke-linejoin="round"/>
</svg>
