<svg width="32" height="32" viewBox="0 0 32 32" fill="none" xmlns="http://www.w3.org/2000/svg">
<path d="M16.0004 18.6666C14.8893 18.6666 13.9449 18.2777 13.1671 17.5C12.3893 16.7222 12.0004 15.7777 12.0004 14.6666V6.66663C12.0004 5.55552 12.3893 4.61107 13.1671 3.83329C13.9449 3.05551 14.8893 2.66663 16.0004 2.66663C17.1115 2.66663 18.056 3.05551 18.8338 3.83329C19.6115 4.61107 20.0004 5.55552 20.0004 6.66663V14.6666C20.0004 15.7777 19.6115 16.7222 18.8338 17.5C18.056 18.2777 17.1115 18.6666 16.0004 18.6666ZM14.6671 26.6666V23.9C12.6226 23.6111 10.8729 22.7444 9.41776 21.3C7.96265 19.8555 7.07909 18.1 6.76709 16.0333C6.72265 15.6555 6.82265 15.3333 7.06709 15.0666C7.31154 14.8 7.62265 14.6666 8.00043 14.6666C8.3782 14.6666 8.69509 14.7946 8.95109 15.0506C9.20709 15.3066 9.37909 15.6231 9.46709 16C9.7782 17.5555 10.5506 18.8333 11.7844 19.8333C13.0182 20.8333 14.4235 21.3333 16.0004 21.3333C17.6004 21.3333 19.0115 20.828 20.2338 19.8173C21.456 18.8066 22.2226 17.5342 22.5338 16C22.6226 15.6222 22.7951 15.3057 23.0511 15.0506C23.3071 14.7955 23.6235 14.6675 24.0004 14.6666C24.3773 14.6657 24.6884 14.7991 24.9338 15.0666C25.1791 15.3342 25.2791 15.6564 25.2338 16.0333C24.9226 18.0555 24.0449 19.8 22.6004 21.2666C21.156 22.7333 19.4004 23.6111 17.3338 23.9V26.6666C17.3338 27.0444 17.2058 27.3613 16.9498 27.6173C16.6938 27.8733 16.3773 28.0008 16.0004 28C15.6235 27.9991 15.3071 27.8711 15.0511 27.616C14.7951 27.3608 14.6671 27.0444 14.6671 26.6666ZM16.0004 16C16.3782 16 16.6951 15.872 16.9511 15.616C17.2071 15.36 17.3346 15.0435 17.3338 14.6666V6.66663C17.3338 6.28885 17.2058 5.9724 16.9498 5.71729C16.6938 5.46218 16.3773 5.33418 16.0004 5.33329C15.6235 5.3324 15.3071 5.4604 15.0511 5.71729C14.7951 5.97418 14.6671 6.29063 14.6671 6.66663V14.6666C14.6671 15.0444 14.7951 15.3613 15.0511 15.6173C15.3071 15.8733 15.6235 16.0008 16.0004 16Z" fill="white"/>
</svg>
