<svg width="32" height="32" viewBox="0 0 32 32" fill="none" xmlns="http://www.w3.org/2000/svg">
<path fill-rule="evenodd" clip-rule="evenodd" d="M15.0043 15.72L15.3057 15.7866L20.2603 17.024C21.8217 17.4146 22.607 19.0613 22.1137 20.544L22.5403 20.2506L23.4017 19.6346C23.835 19.328 24.2777 19.0373 24.7377 18.808C26.7857 17.784 29.183 19.196 29.327 21.436L29.3337 21.6493V21.7226C29.3337 22.652 28.9337 23.532 28.2403 24.1413L28.0443 24.3013L23.951 27.3706C23.5523 27.6693 23.103 27.8906 22.6257 28.024L22.335 28.0933L18.055 28.9493C16.7257 29.2148 15.3471 29.0687 14.103 28.5306L13.767 28.3746L10.6337 26.808C10.4954 26.7382 10.3461 26.6931 10.1923 26.6746L10.0377 26.6666H8.97633C8.76141 27.039 8.45966 27.3538 8.09679 27.5843C7.73392 27.8149 7.32069 27.9543 6.89233 27.9906L6.66699 28H5.33366C4.66089 28.0002 4.0129 27.7461 3.51959 27.2886C3.02629 26.8312 2.72412 26.2042 2.67366 25.5333L2.66699 25.3333V20C2.66712 19.3274 2.92135 18.6798 3.37878 18.1867C3.8362 17.6937 4.46301 17.3917 5.13366 17.3413L5.33366 17.3333H6.66699C7.31233 17.3333 7.90433 17.5626 8.36566 17.9453L8.53233 18.0946L11.1857 16.4373C12.2331 15.7824 13.4753 15.5114 14.7003 15.6706L15.0043 15.72ZM12.599 18.6986L9.33366 20.7386V24H10.0377C10.6588 24 11.2715 24.1447 11.827 24.4226L14.9603 25.9893C15.756 26.3869 16.6615 26.5079 17.5337 26.3333L21.8123 25.4773C22.0075 25.4385 22.1916 25.3565 22.351 25.2373L26.4443 22.1666C26.615 22.0386 26.667 21.8506 26.667 21.648C26.667 21.566 26.6473 21.4853 26.6095 21.4126C26.5716 21.3399 26.5168 21.2774 26.4497 21.2304C26.3826 21.1835 26.3051 21.1534 26.2238 21.1427C26.1426 21.1321 26.06 21.1412 25.983 21.1693L22.7457 23.3293C22.0881 23.7672 21.3157 24.0005 20.5257 24H16.0003V21.3333H18.079C18.3587 21.3331 18.6313 21.2449 18.8581 21.0812C19.085 20.9176 19.2546 20.6867 19.343 20.4213L19.6137 19.6106L14.659 18.3733C14.3114 18.2863 13.9498 18.2703 13.5959 18.3262C13.2419 18.3821 12.9029 18.5088 12.599 18.6986ZM6.66699 20H5.33366V25.3333H6.66699V20ZM21.3337 4.62663C22.707 3.76796 24.283 3.83596 25.555 4.5773C27.0377 5.4413 28.043 7.16663 27.999 9.13996C27.9443 11.5866 26.119 13.5986 23.415 15.2733L22.8843 15.592C22.407 15.8746 21.8977 16.1493 21.3337 16.1493C20.7697 16.1493 20.2603 15.8746 19.783 15.592L19.2523 15.272C16.547 13.5973 14.723 11.5866 14.667 9.13863C14.623 7.1653 15.6283 5.43996 17.111 4.57596C18.383 3.83463 19.9577 3.76663 21.3323 4.6253L21.3337 4.62663ZM24.2123 6.8813C23.707 6.58796 23.1057 6.5533 22.5083 7.06263L22.2337 7.31596C21.9779 7.51954 21.6606 7.63037 21.3337 7.63037C21.0067 7.63037 20.6895 7.51954 20.4337 7.31596L20.159 7.06263C19.5603 6.5533 18.959 6.58663 18.455 6.8813C17.8403 7.23996 17.311 8.0413 17.335 9.0813C17.3577 10.1186 18.159 11.4546 20.6257 12.9866L20.943 13.1786L21.3337 13.4066L21.7243 13.18C24.4403 11.564 25.3083 10.16 25.3337 9.0773C25.3577 8.03863 24.8283 7.2373 24.2137 6.87863L24.2123 6.8813Z" fill="white"/>
</svg>
