<svg width="24" height="24" viewBox="0 0 24 24" fill="none" xmlns="http://www.w3.org/2000/svg">
<path d="M21.2552 7.134L20.7612 6.277C20.3882 5.629 20.2012 5.305 19.8842 5.177C19.5662 5.047 19.2072 5.149 18.4892 5.353L17.2692 5.696C16.8102 5.802 16.3292 5.742 15.9102 5.527L15.5732 5.333C15.214 5.10266 14.9379 4.76347 14.7852 4.365L14.4512 3.368C14.2312 2.708 14.1212 2.378 13.8612 2.188C13.5982 2 13.2502 2 12.5562 2H11.4422C10.7472 2 10.4002 2 10.1392 2.189C9.87719 2.378 9.76819 2.708 9.54819 3.368L9.21419 4.365C9.06151 4.76347 8.7854 5.10266 8.42619 5.333L8.08919 5.527C7.67031 5.74184 7.18908 5.80204 6.73019 5.697L5.51019 5.353C4.79219 5.149 4.43319 5.047 4.11519 5.176C3.79819 5.306 3.61119 5.629 3.23819 6.277L2.74419 7.134C2.39419 7.741 2.21919 8.044 2.25419 8.368C2.28719 8.691 2.52119 8.951 2.99019 9.472L4.02019 10.625C4.27319 10.944 4.45219 11.5 4.45219 12C4.45219 12.5 4.27219 13.056 4.02119 13.375L2.99019 14.528C2.52119 15.048 2.28719 15.309 2.25319 15.632C2.21919 15.955 2.39419 16.259 2.74419 16.866L3.23819 17.723C3.61119 18.371 3.79819 18.695 4.11519 18.823C4.43319 18.953 4.79219 18.851 5.51019 18.647L6.73019 18.304C7.19019 18.198 7.67019 18.258 8.09019 18.473L8.42619 18.667C8.78519 18.897 9.06119 19.237 9.21419 19.635L9.54819 20.632C9.76819 21.292 9.87819 21.622 10.1382 21.812C10.4002 22 10.7482 22 11.4422 22H12.5562C13.2512 22 13.5982 22 13.8592 21.811C14.1212 21.622 14.2312 21.293 14.4502 20.633L14.7842 19.635C14.9372 19.236 15.2132 18.897 15.5722 18.667L15.9092 18.473C16.3281 18.2582 16.8093 18.198 17.2682 18.303L18.4882 18.647C19.2062 18.851 19.5652 18.953 19.8832 18.824C20.2002 18.694 20.3872 18.371 20.7602 17.723L21.2542 16.866C21.6042 16.259 21.7792 15.956 21.7442 15.632C21.7112 15.309 21.4772 15.049 21.0082 14.528L19.9782 13.375C19.7252 13.055 19.5462 12.5 19.5462 12C19.5462 11.5 19.7262 10.944 19.9772 10.625L21.0082 9.472C21.4772 8.952 21.7112 8.691 21.7452 8.368C21.7792 8.045 21.6052 7.741 21.2552 7.134Z" stroke="white" stroke-width="1.5" stroke-linecap="round" stroke-linejoin="round"/>
<path d="M14.0624 11.5L14.5624 11C15.0034 10.559 15.2244 10.338 15.5134 10.43C15.8034 10.521 15.8494 10.783 15.9404 11.307C15.9804 11.5323 16.0004 11.7633 16.0004 12C16.0007 12.6551 15.8401 13.3003 15.5327 13.8789C15.2252 14.4574 14.7804 14.9516 14.2373 15.318C13.6941 15.6843 13.0693 15.9117 12.4177 15.98C11.7661 16.0484 11.1077 15.9556 10.5004 15.71M10.0004 12.535L9.4564 13.079C9.0224 13.513 8.8044 13.731 8.5184 13.644C8.2314 13.557 8.1804 13.3 8.0784 12.787C7.93611 12.0789 7.98818 11.3455 8.2291 10.6646C8.47002 9.98374 8.89079 9.3808 9.44676 8.91979C10.0027 8.45878 10.6731 8.15689 11.3868 8.04618C12.1005 7.93547 12.8309 8.02005 13.5004 8.29097" stroke="white" stroke-width="1.5" stroke-linecap="round" stroke-linejoin="round"/>
</svg>
