<svg width="27" height="27" viewBox="0 0 27 27" fill="none" xmlns="http://www.w3.org/2000/svg">
<path d="M18.5002 0.5V1.906C17.68 2.04541 16.9011 2.36584 16.2202 2.844L15.1882 1.874L13.8132 3.344L14.8132 4.281C14.3569 4.94831 14.0477 5.70505 13.9062 6.501H12.5002V8.501H13.9062C14.0522 9.331 14.3802 10.087 14.8442 10.751L13.7812 11.781L15.2212 13.221L16.2512 12.157C16.9152 12.621 17.6712 12.949 18.5012 13.095V14.5H20.5012V13.094C21.2971 12.9528 22.0538 12.644 22.7212 12.188L23.6572 13.188L25.1272 11.812L24.1572 10.782C24.6272 10.112 24.9472 9.337 25.0952 8.5H26.5002V6.5H25.0942C24.9506 5.69022 24.6303 4.92202 24.1562 4.25L25.0942 3.312L23.6872 1.906L22.7502 2.844C22.0782 2.36991 21.31 2.04965 20.5002 1.906V0.5H18.5002ZM19.5002 3.813C19.9853 3.80981 20.4663 3.903 20.9151 4.08714C21.3639 4.27129 21.7717 4.54274 22.1148 4.88573C22.4579 5.22872 22.7294 5.63644 22.9137 6.08521C23.098 6.53398 23.1913 7.01488 23.1882 7.5C23.1882 9.555 21.5552 11.188 19.5002 11.188C17.4452 11.188 15.8122 9.555 15.8122 7.5C15.8122 5.445 17.4452 3.812 19.5002 3.812V3.813ZM6.53023 9.718L4.68823 10.468L5.40623 12.278C4.45052 12.8501 3.64655 13.6437 3.06223 14.592L1.28223 13.872L0.532227 15.717L2.31223 16.435C2.17178 16.9759 2.09857 17.5321 2.09423 18.091C2.09423 18.661 2.17923 19.217 2.31223 19.747L0.532227 20.467L1.28223 22.31L3.06223 21.59C3.64135 22.5506 4.44591 23.3555 5.40623 23.935L4.68623 25.715L6.53123 26.465L7.25123 24.685C7.79217 24.8254 8.34837 24.8987 8.90723 24.903C9.47723 24.903 10.0352 24.818 10.5632 24.685L11.2832 26.465L13.1262 25.715L12.4062 23.935C13.3555 23.3519 14.1494 22.5477 14.7202 21.591L16.5302 22.309L17.2802 20.466L15.4702 19.746C15.6002 19.216 15.6882 18.659 15.6882 18.09C15.6882 17.52 15.6012 16.962 15.4682 16.433L17.2812 15.715L16.5312 13.87L14.7212 14.59C14.1466 13.6443 13.353 12.8506 12.4072 12.276L13.1272 10.466L11.2822 9.716L10.5652 11.526C10.0235 11.3878 9.46724 11.3149 8.90823 11.309C8.33823 11.309 7.78223 11.395 7.25223 11.527L6.53223 9.717L6.53023 9.718ZM8.90623 13.31C11.5692 13.31 13.6862 15.43 13.6862 18.092C13.6882 20.755 11.5692 22.904 8.90623 22.904C8.27408 22.9048 7.648 22.7809 7.06382 22.5393C6.47965 22.2978 5.94886 21.9434 5.50187 21.4964C5.05487 21.0494 4.70046 20.5186 4.45891 19.9344C4.21736 19.3502 4.09344 18.7241 4.09423 18.092C4.09423 15.429 6.24423 13.31 8.90623 13.31Z" fill="white"/>
</svg>
