<svg width="34" height="33" viewBox="0 0 34 33" fill="none" xmlns="http://www.w3.org/2000/svg">
<path d="M22.6568 16.5L25.4868 19.328L31.1428 13.672C32.6432 12.1716 33.486 10.1368 33.486 8.01498C33.486 5.89319 32.6432 3.85831 31.1428 2.35798C30.3999 1.61509 29.518 1.0258 28.5474 0.62375C27.5767 0.221702 26.5364 0.0147705 25.4858 0.0147705C23.364 0.0147705 21.3292 0.857647 19.8288 2.35798L14.1728 8.01398L17.0008 10.844L22.6568 5.18598C23.4071 4.43568 24.4248 4.01417 25.4858 4.01417C26.5469 4.01417 27.5645 4.43568 28.3148 5.18598C29.0651 5.93627 29.4866 6.9539 29.4866 8.01498C29.4866 9.07606 29.0651 10.0937 28.3148 10.844L22.6568 16.5ZM17.0008 22.158L19.8288 24.986L14.1728 30.642C12.6725 32.1423 10.6376 32.9852 8.51583 32.9852C6.39404 32.9852 4.35916 32.1423 2.85883 30.642C1.3585 29.1416 0.515625 27.1068 0.515625 24.985C0.515625 22.8632 1.3585 20.8283 2.85883 19.328L8.51483 13.672L11.3448 16.5L5.68683 22.158C4.9368 22.9083 4.51554 23.9258 4.51573 24.9867C4.51592 26.0476 4.93753 27.0649 5.68783 27.815C6.43813 28.565 7.45565 28.9863 8.51654 28.9861C9.57743 28.9859 10.5948 28.5643 11.3448 27.814L17.0008 22.158Z" fill="white"/>
<path d="M22.659 13.672C23.0342 13.2967 23.2451 12.7877 23.2451 12.257C23.2451 11.7262 23.0342 11.2173 22.659 10.842C22.2837 10.4667 21.7747 10.2559 21.244 10.2559C20.7132 10.2559 20.2042 10.4667 19.8289 10.842L11.345 19.328C11.1539 19.5125 11.0016 19.7332 10.8967 19.9772C10.7919 20.2212 10.7368 20.4836 10.7345 20.7492C10.7321 21.0147 10.7827 21.2781 10.8833 21.5239C10.9839 21.7697 11.1324 21.993 11.3202 22.1808C11.5079 22.3685 11.7312 22.5171 11.977 22.6176C12.2228 22.7182 12.4862 22.7688 12.7518 22.7665C13.0173 22.7642 13.2798 22.709 13.5238 22.6042C13.7678 22.4994 13.9885 22.347 14.173 22.156L22.659 13.672Z" fill="white"/>
</svg>
