<svg width="28" height="28" viewBox="0 0 28 28" fill="none" xmlns="http://www.w3.org/2000/svg">
<path d="M26.547 13.4401L14.547 1.44008C14.067 0.960081 13.4003 0.666748 12.667 0.666748H3.33366C1.86699 0.666748 0.666992 1.86675 0.666992 3.33341V12.6667C0.666992 13.4001 0.960325 14.0667 1.45366 14.5601L13.4537 26.5601C13.9337 27.0401 14.6003 27.3334 15.3337 27.3334C16.067 27.3334 16.7337 27.0401 17.2137 26.5467L26.547 17.2134C27.0403 16.7334 27.3337 16.0667 27.3337 15.3334C27.3337 14.6001 27.027 13.9201 26.547 13.4401ZM15.3337 24.6801L3.33366 12.6667V3.33341H12.667V3.32008L24.667 15.3201L15.3337 24.6801Z" fill="white"/>
</svg>
