<svg width="46" height="70" viewBox="0 0 46 70" fill="none" xmlns="http://www.w3.org/2000/svg">
<path d="M44.6611 21.1729C45.8083 22.32 45.8083 24.18 44.6611 25.3271C43.5139 26.4743 41.654 26.4743 40.5068 25.3271L25.9375 10.7578L25.9375 66.333C25.9375 67.9553 24.6222 69.2704 23 69.2705C21.3776 69.2705 20.0625 67.9553 20.0625 66.333L20.0625 10.7598L5.49412 25.3271C4.34692 26.4741 2.4869 26.4742 1.33982 25.3271C0.192864 24.1801 0.192968 22.32 1.33982 21.1729L20.9131 1.60059C20.9233 1.59028 20.934 1.58047 20.9443 1.57031C20.9999 1.51577 21.0565 1.4633 21.1152 1.41406C21.123 1.40753 21.1308 1.40098 21.1386 1.39453C21.1604 1.37663 21.1839 1.36093 21.206 1.34375C21.2619 1.30059 21.318 1.25788 21.3769 1.21875C21.4021 1.20205 21.4286 1.18772 21.4541 1.17188C21.5087 1.13795 21.5631 1.1036 21.6201 1.07324C21.6529 1.05574 21.6873 1.04156 21.7207 1.02539C21.7742 0.999428 21.8275 0.972945 21.8828 0.950195C21.913 0.937758 21.944 0.9274 21.9746 0.916016C22.0339 0.893919 22.0933 0.871824 22.1543 0.853516C22.1865 0.843863 22.2195 0.837628 22.2519 0.829102C22.3104 0.813723 22.3688 0.796956 22.4287 0.785156C22.4323 0.784451 22.4359 0.783895 22.4394 0.783203L22.6992 0.744141C22.798 0.7341 22.8985 0.729492 23 0.729492C23.0868 0.729499 23.1728 0.732841 23.2578 0.740234C23.2692 0.741228 23.2806 0.742038 23.292 0.743164C23.3248 0.746409 23.3571 0.753494 23.3896 0.757813C23.4516 0.766054 23.5137 0.773934 23.5752 0.786133C23.6237 0.795773 23.6711 0.80929 23.7187 0.821289C23.7636 0.832575 23.8091 0.842031 23.8535 0.855469C23.8972 0.868716 23.9396 0.885189 23.9824 0.900391C24.031 0.917581 24.0801 0.933304 24.1279 0.953125C24.1632 0.96781 24.1969 0.985947 24.2314 1.00195C24.2851 1.02673 24.3392 1.05091 24.3916 1.0791C24.4182 1.09345 24.4436 1.10987 24.4697 1.125C24.5251 1.15706 24.5811 1.18863 24.6347 1.22461C24.661 1.24224 24.6852 1.2628 24.7109 1.28125C24.8389 1.37325 24.963 1.47475 25.0781 1.58984L44.6611 21.1729Z" fill="#161616"/>
</svg>
